<svg xmlns="http://www.w3.org/2000/svg" width="1440" height="671" viewBox="0 245 1440 671" fill="none">
<g opacity="0.1" clip-path="url(#clip0_1_330)">
<path d="M-622.741 1234.78C-626.711 1211.74 -613.133 873.414 -487.843 593.264C-375.376 342.144 -113.919 198.987 192.029 379.411C519.839 572.78 802.624 592.183 1030.66 535.721C1255.7 479.743 1405.38 311.162 1472.61 203.67C1618.52 -28.6221 1833.97 115.01 1758.23 420.62C1722.5 562.782 1628.34 602.543 1465.2 617.321C1294.66 632.768 1042.72 600.083 693.259 666.839C356.232 731.471 -23.049 886.62 -236.343 1084.06C-463.34 1294.36 -589.504 1435.78 -622.741 1234.78Z" fill="url(#paint0_linear_1_330)"/>
<g clip-path="url(#clip1_1_330)">
<path d="M99.8419 1169.37C98.3914 1169.37 97.2127 1170.53 97.2125 1171.97C97.2122 1173.4 98.3905 1174.57 99.841 1174.57C101.291 1174.57 102.47 1173.4 102.47 1171.97C102.471 1170.53 101.292 1169.36 99.8419 1169.37Z" fill="#FF5722"/>
<path d="M144.825 1174.56C146.276 1174.56 147.454 1173.4 147.454 1171.96C147.454 1170.52 146.277 1169.36 144.825 1169.36C143.374 1169.36 142.196 1170.52 142.196 1171.96C142.196 1173.4 143.373 1174.56 144.825 1174.56Z" fill="#FF5722"/>
<path d="M122.334 1169.36C120.883 1169.36 119.705 1170.53 119.704 1171.97C119.704 1173.4 120.882 1174.57 122.333 1174.57C123.783 1174.57 124.962 1173.4 124.962 1171.96C124.962 1170.53 123.784 1169.36 122.334 1169.36Z" fill="#FF5722"/>
<path d="M121.965 1148.2C120.514 1148.2 119.336 1149.37 119.335 1150.8C119.335 1152.24 120.513 1153.4 121.964 1153.4C123.414 1153.4 124.593 1152.24 124.593 1150.8C124.593 1149.36 123.415 1148.2 121.965 1148.2Z" fill="#FF5722"/>
<path d="M99.4729 1148.2C98.0225 1148.2 96.8438 1149.37 96.8435 1150.8C96.8433 1152.24 98.0215 1153.41 99.472 1153.41C100.922 1153.41 102.101 1152.24 102.101 1150.8C102.102 1149.37 100.923 1148.2 99.4729 1148.2Z" fill="#FF5722"/>
<path d="M166.948 1148.19C165.498 1148.19 164.319 1149.36 164.319 1150.79C164.319 1152.23 165.497 1153.4 166.947 1153.4C168.398 1153.4 169.577 1152.23 169.577 1150.79C169.577 1149.36 168.399 1148.19 166.948 1148.19Z" fill="#FF5722"/>
<path d="M144.457 1148.19C143.006 1148.19 141.827 1149.36 141.827 1150.8C141.827 1152.23 143.005 1153.4 144.456 1153.4C145.906 1153.4 147.085 1152.23 147.085 1150.8C147.085 1149.36 145.907 1148.19 144.457 1148.19Z" fill="#FF5722"/>
<path d="M99.8344 1211.71C98.384 1211.71 97.2053 1212.88 97.2051 1214.32C97.2048 1215.75 98.3831 1216.92 99.8335 1216.92C101.284 1216.92 102.463 1215.75 102.463 1214.32C102.463 1212.88 101.285 1211.71 99.8344 1211.71Z" fill="#FF5722"/>
<path d="M121.957 1190.54C120.507 1190.54 119.328 1191.7 119.328 1193.14C119.328 1194.58 120.506 1195.74 121.956 1195.74C123.407 1195.74 124.585 1194.57 124.586 1193.14C124.586 1191.7 123.408 1190.54 121.957 1190.54Z" fill="#FF5722"/>
<path d="M99.4655 1190.54C98.015 1190.54 96.8364 1191.71 96.8361 1193.14C96.8359 1194.58 98.0141 1195.75 99.4646 1195.75C100.915 1195.75 102.094 1194.58 102.094 1193.14C102.094 1191.71 100.916 1190.54 99.4655 1190.54Z" fill="#FF5722"/>
<path d="M189.071 1127.01C187.621 1127.01 186.442 1128.18 186.442 1129.61C186.442 1131.05 187.62 1132.22 189.07 1132.22C190.521 1132.22 191.699 1131.05 191.7 1129.61C191.7 1128.18 190.522 1127.01 189.071 1127.01Z" fill="#FF5722"/>
<path d="M144.088 1127.02C142.637 1127.02 141.458 1128.19 141.458 1129.62C141.458 1131.06 142.636 1132.23 144.087 1132.23C145.537 1132.23 146.716 1131.06 146.716 1129.62C146.716 1128.19 145.538 1127.02 144.088 1127.02Z" fill="#FF5722"/>
<path d="M166.578 1132.22C168.03 1132.22 169.208 1131.06 169.208 1129.62C169.208 1128.18 168.031 1127.01 166.579 1127.01C165.127 1127.01 163.95 1128.18 163.95 1129.62C163.95 1131.06 165.127 1132.22 166.578 1132.22Z" fill="#FF5722"/>
<path d="M121.586 1127.02C120.135 1127.02 118.957 1128.19 118.956 1129.63C118.956 1131.06 120.134 1132.23 121.585 1132.23C123.035 1132.23 124.214 1131.06 124.214 1129.63C124.214 1128.19 123.046 1127.02 121.586 1127.02Z" fill="#FF5722"/>
<path d="M99.0939 1127.03C97.6434 1127.03 96.4647 1128.19 96.4645 1129.63C96.4642 1131.07 97.6425 1132.23 99.0929 1132.23C100.543 1132.23 101.722 1131.06 101.722 1129.63C101.723 1128.19 100.544 1127.03 99.0939 1127.03Z" fill="#FF5722"/>
<path d="M188.692 1105.84C187.242 1105.84 186.063 1107.01 186.063 1108.44C186.063 1109.88 187.241 1111.04 188.691 1111.04C190.142 1111.04 191.32 1109.87 191.321 1108.44C191.321 1107 190.143 1105.84 188.692 1105.84Z" fill="#FF5722"/>
<path d="M166.2 1105.84C164.75 1105.84 163.571 1107.01 163.571 1108.44C163.571 1109.88 164.749 1111.05 166.199 1111.05C167.65 1111.05 168.829 1109.88 168.829 1108.44C168.829 1107.01 167.651 1105.84 166.2 1105.84Z" fill="#FF5722"/>
<path d="M143.709 1105.84C142.258 1105.84 141.079 1107.01 141.079 1108.45C141.079 1109.88 142.257 1111.05 143.708 1111.05C145.158 1111.05 146.337 1109.88 146.337 1108.45C146.337 1107.01 145.159 1105.84 143.709 1105.84Z" fill="#FF5722"/>
<path d="M211.194 1105.83C209.744 1105.83 208.565 1107 208.565 1108.44C208.564 1109.87 209.743 1111.04 211.193 1111.04C212.644 1111.04 213.822 1109.87 213.822 1108.44C213.823 1107 212.644 1105.83 211.194 1105.83Z" fill="#FF5722"/>
<path d="M98.7249 1105.85C97.2744 1105.85 96.0958 1107.02 96.0955 1108.46C96.0953 1109.89 97.2735 1111.06 98.724 1111.06C100.174 1111.06 101.353 1109.89 101.353 1108.45C101.354 1107.02 100.175 1105.85 98.7249 1105.85Z" fill="#FF5722"/>
<path d="M121.217 1105.85C119.766 1105.85 118.588 1107.02 118.587 1108.45C118.587 1109.89 119.765 1111.06 121.216 1111.05C122.666 1111.05 123.845 1109.89 123.845 1108.45C123.845 1107.02 122.667 1105.85 121.217 1105.85Z" fill="#FF5722"/>
<path d="M98.3559 1084.68C96.9055 1084.68 95.7268 1085.85 95.7265 1087.28C95.7263 1088.72 96.9046 1089.88 98.355 1089.88C99.8054 1089.88 100.984 1088.72 100.984 1087.28C100.985 1085.84 99.8063 1084.68 98.3559 1084.68Z" fill="#FF5722"/>
<path d="M188.322 1089.87C189.774 1089.87 190.951 1088.7 190.952 1087.27C190.952 1085.83 189.775 1084.66 188.323 1084.66C186.871 1084.66 185.694 1085.83 185.694 1087.27C185.694 1088.7 186.87 1089.87 188.322 1089.87Z" fill="#FF5722"/>
<path d="M233.306 1089.86C234.758 1089.86 235.935 1088.7 235.935 1087.26C235.936 1085.82 234.759 1084.65 233.307 1084.65C231.855 1084.65 230.678 1085.82 230.677 1087.26C230.677 1088.7 231.854 1089.86 233.306 1089.86Z" fill="#FF5722"/>
<path d="M165.831 1084.67C164.381 1084.67 163.202 1085.83 163.202 1087.27C163.202 1088.71 164.38 1089.87 165.83 1089.87C167.281 1089.87 168.46 1088.7 168.46 1087.27C168.46 1085.83 167.282 1084.67 165.831 1084.67Z" fill="#FF5722"/>
<path d="M143.34 1084.67C141.889 1084.67 140.71 1085.84 140.71 1087.27C140.71 1088.71 141.888 1089.88 143.339 1089.88C144.789 1089.88 145.968 1088.71 145.968 1087.27C145.968 1085.84 144.79 1084.67 143.34 1084.67Z" fill="#FF5722"/>
<path d="M120.848 1084.67C119.397 1084.67 118.219 1085.84 118.218 1087.28C118.218 1088.71 119.396 1089.88 120.847 1089.88C122.297 1089.88 123.476 1088.71 123.476 1087.28C123.476 1085.84 122.298 1084.67 120.848 1084.67Z" fill="#FF5722"/>
<path d="M210.815 1084.66C209.365 1084.66 208.186 1085.83 208.186 1087.26C208.185 1088.7 209.364 1089.87 210.814 1089.87C212.265 1089.86 213.443 1088.7 213.443 1087.26C213.444 1085.83 212.265 1084.66 210.815 1084.66Z" fill="#FF5722"/>
<path d="M97.986 1068.71C99.4379 1068.71 100.615 1067.54 100.615 1066.11C100.616 1064.67 99.4389 1063.5 97.9869 1063.5C96.535 1063.5 95.3578 1064.67 95.3576 1066.11C95.3573 1067.54 96.5341 1068.71 97.986 1068.71Z" fill="#FF5722"/>
<path d="M210.446 1063.49C208.996 1063.49 207.817 1064.66 207.817 1066.1C207.816 1067.53 208.995 1068.7 210.445 1068.7C211.896 1068.7 213.074 1067.53 213.074 1066.1C213.075 1064.66 211.896 1063.49 210.446 1063.49Z" fill="#FF5722"/>
<path d="M120.479 1063.51C119.028 1063.51 117.85 1064.68 117.849 1066.11C117.849 1067.55 119.027 1068.72 120.478 1068.72C121.928 1068.72 123.107 1067.55 123.107 1066.11C123.107 1064.68 121.929 1063.51 120.479 1063.51Z" fill="#FF5722"/>
<path d="M165.462 1063.5C164.012 1063.5 162.833 1064.67 162.833 1066.11C162.833 1067.54 164.011 1068.71 165.461 1068.71C166.912 1068.71 168.091 1067.54 168.091 1066.1C168.091 1064.67 166.913 1063.5 165.462 1063.5Z" fill="#FF5722"/>
<path d="M142.971 1063.51C141.52 1063.51 140.341 1064.67 140.341 1066.11C140.341 1067.54 141.519 1068.71 142.97 1068.71C144.42 1068.71 145.599 1067.54 145.599 1066.11C145.599 1064.67 144.421 1063.5 142.971 1063.51Z" fill="#FF5722"/>
<path d="M187.954 1063.5C186.504 1063.5 185.325 1064.67 185.325 1066.1C185.325 1067.54 186.503 1068.7 187.953 1068.7C189.404 1068.7 190.582 1067.54 190.583 1066.1C190.583 1064.67 189.405 1063.5 187.954 1063.5Z" fill="#FF5722"/>
<path d="M255.43 1063.49C253.979 1063.49 252.801 1064.65 252.8 1066.09C252.8 1067.53 253.978 1068.69 255.429 1068.69C256.879 1068.69 258.058 1067.52 258.058 1066.09C258.058 1064.65 256.89 1063.49 255.43 1063.49Z" fill="#FF5722"/>
<path d="M232.938 1063.49C231.487 1063.49 230.309 1064.66 230.308 1066.09C230.308 1067.53 231.486 1068.7 232.937 1068.7C234.387 1068.7 235.566 1067.53 235.566 1066.09C235.567 1064.66 234.398 1063.49 232.938 1063.49Z" fill="#FF5722"/>
<path d="M120.109 1047.53C121.559 1047.53 122.738 1046.36 122.738 1044.93C122.738 1043.49 121.56 1042.32 120.11 1042.32C118.659 1042.32 117.481 1043.49 117.48 1044.93C117.48 1046.36 118.658 1047.53 120.109 1047.53Z" fill="#FF5722"/>
<path d="M97.6171 1047.54C99.0675 1047.54 100.246 1046.37 100.246 1044.93C100.247 1043.5 99.0583 1042.34 97.618 1042.34C96.1776 1042.34 94.9889 1043.51 94.9886 1044.94C94.9884 1046.38 96.1666 1047.55 97.6171 1047.55L97.6171 1047.54Z" fill="#FF5722"/>
<path d="M255.06 1047.52C256.512 1047.52 257.689 1046.35 257.689 1044.91C257.689 1043.48 256.513 1042.31 255.061 1042.31C253.609 1042.31 252.432 1043.48 252.431 1044.92C252.431 1046.35 253.608 1047.52 255.06 1047.52Z" fill="#FF5722"/>
<path d="M187.584 1047.52C189.035 1047.52 190.213 1046.35 190.214 1044.92C190.214 1043.48 189.036 1042.31 187.585 1042.31C186.135 1042.31 184.956 1043.48 184.956 1044.92C184.956 1046.35 186.134 1047.52 187.584 1047.52Z" fill="#FF5722"/>
<path d="M210.076 1047.52C211.527 1047.52 212.705 1046.35 212.706 1044.91C212.706 1043.48 211.527 1042.31 210.077 1042.31C208.627 1042.31 207.448 1043.48 207.448 1044.91C207.447 1046.35 208.626 1047.52 210.076 1047.52Z" fill="#FF5722"/>
<path d="M232.568 1047.51C234.018 1047.51 235.197 1046.34 235.197 1044.91C235.198 1043.47 234.019 1042.31 232.569 1042.31C231.118 1042.31 229.94 1043.47 229.939 1044.91C229.939 1046.35 231.118 1047.51 232.568 1047.51Z" fill="#FF5722"/>
<path d="M142.601 1047.53C144.051 1047.53 145.23 1046.36 145.23 1044.92C145.23 1043.49 144.052 1042.32 142.602 1042.32C141.151 1042.32 139.972 1043.49 139.972 1044.92C139.972 1046.36 141.15 1047.53 142.601 1047.53Z" fill="#FF5722"/>
<path d="M277.552 1047.51C279.002 1047.5 280.181 1046.34 280.181 1044.9C280.181 1043.47 279.013 1042.3 277.552 1042.3C276.092 1042.3 274.923 1043.47 274.923 1044.9C274.923 1046.34 276.101 1047.51 277.552 1047.51Z" fill="#FF5722"/>
<path d="M165.093 1047.52C166.543 1047.52 167.722 1046.36 167.722 1044.92C167.722 1043.48 166.544 1042.32 165.093 1042.32C163.643 1042.32 162.464 1043.49 162.464 1044.92C162.464 1046.36 163.642 1047.52 165.093 1047.52Z" fill="#FF5722"/>
</g>
</g>
<defs>
<linearGradient id="paint0_linear_1_330" x1="1649.24" y1="1051.63" x2="-563.901" y2="353.264" gradientUnits="userSpaceOnUse">
<stop stop-color="#5D50C6"/>
<stop offset="1" stop-color="#F85E9F"/>
</linearGradient>
<clipPath id="clip0_1_330">
<rect width="2523.35" height="949.368" fill="white" transform="matrix(0.987088 -0.160178 0.165353 0.986234 -762 404.186)"/>
</clipPath>
<clipPath id="clip1_1_330">
<rect width="185.136" height="174.629" fill="white" transform="matrix(1.0003 -0.00016955 -0.000175229 0.999678 94.9891 1042.34)"/>
</clipPath>
</defs>
</svg>