<svg xmlns="http://www.w3.org/2000/svg" width="118" height="264" viewBox="0 54 118 264" fill="none">
<g clip-path="url(#clip0_1_426)">
<path d="M191.273 0.554763C216.567 -1.35986 241.584 18.4548 245.043 43.1522C246.841 55.9315 243.521 69.0959 245.977 81.7731C249.424 99.5712 263.604 113.427 278.43 124.212C293.256 134.997 309.696 144.197 321.351 158.233C333.018 172.27 338.783 193.206 329.018 208.58C319.576 223.455 298.928 228.632 289.659 243.621C274.579 267.99 297.925 301.716 285.14 327.32C278.683 340.247 263.708 347.826 249.055 347.962C234.402 348.098 220.267 341.686 208.912 332.577C195.515 321.837 184.771 307.019 168.561 301.116C142.172 291.52 114.434 309.16 86.8456 314.575C60.8599 319.684 31.6115 312.502 14.3069 292.778C-2.9977 273.054 -4.94605 240.517 13.0618 221.404C22.7805 211.084 37.5949 204.445 42.2295 191.133C47.9823 174.615 35.1162 158.165 25.5128 143.483C17.5465 131.304 11.2633 117.539 10.9059 103.072C10.5485 88.5933 17.0507 73.367 29.7669 66.0483C60.7676 48.1823 102.571 82.5435 131.808 57.6195C154.392 38.3827 153.62 3.4097 191.273 0.554763Z" stroke="#FF5722" stroke-width="0.858384" stroke-miterlimit="10"/>
<path d="M189.993 9.7994C213.938 7.98674 237.63 26.7478 240.904 50.131C242.599 62.2305 239.463 74.6925 241.792 86.6901C245.054 103.548 258.485 116.656 272.516 126.863C286.546 137.071 302.11 145.783 313.155 159.072C324.199 172.361 329.652 192.175 320.418 206.733C311.471 220.815 291.93 225.721 283.145 239.905C268.873 262.971 290.973 294.908 278.868 319.152C272.758 331.388 258.578 338.559 244.697 338.695C230.828 338.831 217.443 332.747 206.698 324.137C194.017 313.975 183.848 299.938 168.492 294.353C143.509 285.267 117.247 301.966 91.1345 307.098C66.5323 311.935 38.8403 305.138 22.458 286.468C6.06412 267.797 4.23105 236.993 21.282 218.901C30.4935 209.135 44.5124 202.836 48.8933 190.249C54.3349 174.615 42.1605 159.038 33.0644 145.137C25.5246 133.604 19.5758 120.575 19.2299 106.879C18.8841 93.1703 25.0519 78.7597 37.0879 71.8263C66.44 54.9119 106.018 87.4491 133.687 63.8506C155.061 45.622 154.335 12.5184 189.993 9.81073V9.7994Z" stroke="#FF5722" stroke-width="0.824049" stroke-linecap="round" stroke-linejoin="round"/>
<path d="M188.714 19.0438C211.31 17.3331 233.664 35.0405 236.765 57.0983C238.368 68.518 235.405 80.2776 237.595 91.6067C240.674 107.513 253.355 119.884 266.59 129.525C279.837 139.166 294.524 147.38 304.946 159.921C315.368 172.463 320.521 191.167 311.794 204.909C303.355 218.198 284.909 222.832 276.62 236.223C263.155 257.997 284.01 288.133 272.585 311.006C266.821 322.562 253.436 329.325 240.339 329.45C227.243 329.575 214.619 323.842 204.473 315.708C192.507 306.112 182.903 292.868 168.423 287.6C144.847 279.024 120.06 294.783 95.4117 299.621C72.1928 304.186 46.0687 297.774 30.5972 280.146C15.1257 262.529 13.3963 233.447 29.4904 216.374C38.1831 207.152 51.4065 201.216 55.5453 189.332C60.6872 174.57 49.193 159.876 40.6041 146.757C33.4794 135.881 27.8764 123.577 27.5536 110.651C27.2308 97.7131 33.0413 84.1069 44.3971 77.57C72.1006 61.6073 109.442 92.3091 135.566 70.0474C155.741 52.8499 155.05 21.6042 188.702 19.0551L188.714 19.0438Z" stroke="#FF5722" stroke-width="0.789713" stroke-linecap="round" stroke-linejoin="round"/>
<path d="M187.434 28.2884C208.681 26.6797 229.71 43.3335 232.615 64.0771C234.125 74.8171 231.335 85.8743 233.399 96.5237C236.304 111.478 248.213 123.124 260.664 132.176C273.115 141.24 286.927 148.966 296.738 160.76C306.537 172.553 311.379 190.147 303.182 203.063C295.25 215.57 277.9 219.909 270.106 232.507C257.436 252.979 277.058 281.324 266.313 302.838C260.883 313.703 248.305 320.07 235.993 320.183C223.68 320.296 211.806 314.904 202.271 307.256C191.019 298.238 181.992 285.776 168.365 280.826C146.196 272.759 122.885 287.578 99.7003 292.132C77.8649 296.426 53.2972 290.387 38.7479 273.824C24.1987 257.25 22.5731 229.913 37.7103 213.859C45.8842 205.192 58.3237 199.607 62.2089 188.425C67.0394 174.547 56.237 160.726 48.1669 148.388C41.4687 138.158 36.1885 126.591 35.8888 114.435C35.589 102.268 41.0537 89.477 51.7292 83.3253C77.7842 68.3142 112.901 97.1808 137.468 76.2446C156.445 60.0666 155.799 30.6789 187.434 28.2884Z" stroke="#FF5722" stroke-width="0.755378" stroke-linecap="round" stroke-linejoin="round"/>
<path d="M186.154 37.5331C206.064 36.0263 225.744 51.6265 228.476 71.0559C229.882 81.1162 227.277 91.471 229.214 101.452C231.934 115.466 243.094 126.365 254.75 134.85C266.405 143.336 279.352 150.575 288.529 161.621C297.706 172.667 302.248 189.139 294.558 201.239C287.122 212.953 270.878 217.02 263.581 228.814C251.718 247.994 270.095 274.538 260.03 294.681C254.946 304.855 243.163 310.814 231.623 310.927C220.094 311.04 208.969 305.988 200.034 298.828C189.497 290.376 181.035 278.707 168.273 274.074C147.51 266.517 125.674 280.395 103.966 284.666C83.5137 288.688 60.5024 283.035 46.8755 267.514C33.2485 251.993 31.7267 226.389 45.8955 211.344C53.5506 203.221 65.2061 197.999 68.8492 187.519C73.3685 174.525 63.2578 161.575 55.695 150.02C49.4233 140.435 44.4775 129.605 44.2008 118.219C43.9126 106.833 49.0429 94.847 59.0383 89.0805C83.4446 75.0211 116.336 102.064 139.336 82.453C157.102 67.306 156.502 39.7762 186.131 37.5331H186.154Z" stroke="#FF5722" stroke-width="0.709597" stroke-linecap="round" stroke-linejoin="round"/>
<path d="M184.874 46.789C203.435 45.3842 221.789 59.9194 224.337 78.046C225.651 87.4265 223.219 97.0789 225.017 106.38C227.554 119.443 237.952 129.605 248.836 137.524C259.707 145.432 271.778 152.184 280.332 162.493C288.886 172.791 293.117 188.154 285.958 199.437C279.029 210.359 263.881 214.154 257.079 225.143C246.023 243.021 263.143 267.775 253.77 286.558C249.032 296.041 238.045 301.603 227.288 301.705C216.532 301.807 206.168 297.094 197.833 290.422C187.999 282.548 180.124 271.672 168.227 267.344C148.87 260.297 128.51 273.247 108.266 277.223C89.1974 280.973 67.7424 275.705 55.0378 261.226C42.3331 246.759 40.9151 222.877 54.127 208.863C61.2633 201.295 72.1234 196.413 75.5243 186.658C79.7438 174.536 70.3133 162.471 63.2578 151.697C57.4127 142.758 52.8012 132.664 52.5361 122.048C52.2709 111.433 57.0438 100.251 66.3705 94.8811C89.1167 81.7733 119.795 106.981 141.238 88.6954C157.805 74.568 157.24 48.9076 184.874 46.8117V46.789Z" stroke="#FF5722" stroke-width="0.675262" stroke-linecap="round" stroke-linejoin="round"/>
<path d="M183.583 56.0336C200.795 54.7308 217.823 68.2124 220.175 85.0248C221.397 93.7256 219.138 102.676 220.809 111.308C223.161 123.419 232.811 132.845 242.898 140.186C252.986 147.528 264.169 153.781 272.112 163.343C280.055 172.893 283.975 187.134 277.335 197.602C270.902 207.73 256.86 211.254 250.553 221.45C240.293 238.024 256.179 260.989 247.487 278.401C243.094 287.193 232.903 292.359 222.931 292.45C212.958 292.54 203.343 288.178 195.619 281.981C186.5 274.674 179.191 264.591 168.158 260.581C150.196 254.055 131.323 266.053 112.555 269.735C94.8695 273.213 74.971 268.319 63.1886 254.905C51.4063 241.48 50.092 219.343 62.347 206.337C68.9645 199.313 79.0406 194.793 82.188 185.741C86.0962 174.502 77.3459 163.309 70.8091 153.317C65.3906 145.035 61.1135 135.666 60.8714 125.821C60.6292 115.976 65.0563 105.61 73.7028 100.625C94.8004 88.4689 123.242 111.852 143.14 94.8925C158.508 81.796 157.978 57.9936 183.606 56.0563L183.583 56.0336Z" stroke="#FF5722" stroke-width="0.640927" stroke-linecap="round" stroke-linejoin="round"/>
<path d="M182.304 65.2783C198.167 64.0774 213.858 76.5054 216.037 91.9923C217.166 100.013 215.08 108.261 216.625 116.214C218.792 127.384 227.681 136.063 236.984 142.837C246.276 149.601 256.595 155.379 263.904 164.181C271.225 172.984 274.833 186.115 268.711 195.756C262.786 205.091 249.839 208.331 244.017 217.734C234.563 233.017 249.205 254.18 241.181 270.233C237.134 278.345 227.738 283.092 218.55 283.182C209.362 283.273 200.496 279.24 193.371 273.53C184.967 266.8 178.234 257.499 168.066 253.795C151.51 247.779 134.114 258.836 116.809 262.235C100.507 265.441 82.1651 260.932 71.3051 248.561C60.445 236.189 59.2345 215.786 70.5211 203.799C76.6198 197.33 85.912 193.161 88.8172 184.812C92.4257 174.446 84.3556 164.136 78.3261 154.926C73.3226 147.29 69.3913 138.657 69.1608 129.571C68.9302 120.496 73.0113 110.935 80.9892 106.346C100.438 95.1418 126.654 116.69 144.997 101.067C159.165 88.9901 158.681 67.057 182.292 65.267L182.304 65.2783Z" stroke="#FF5722" stroke-width="0.606591" stroke-linecap="round" stroke-linejoin="round"/>
<path d="M181.024 74.5229C195.539 73.424 209.903 84.7984 211.886 98.9711C212.912 106.312 211.01 113.858 212.417 121.142C214.4 131.361 222.539 139.314 231.047 145.5C239.555 151.685 248.986 156.976 255.684 165.031C262.382 173.086 265.691 185.106 260.088 193.932C254.669 202.474 242.818 205.442 237.492 214.041C228.833 228.021 242.241 247.394 234.898 262.088C231.197 269.508 222.596 273.859 214.18 273.938C205.765 274.017 197.66 270.335 191.146 265.113C183.456 258.95 177.289 250.441 167.985 247.054C152.836 241.548 136.915 251.665 121.086 254.78C106.168 257.715 89.3821 253.591 79.4443 242.273C69.5066 230.955 68.3998 212.274 78.7295 201.307C84.3094 195.382 92.8061 191.575 95.4692 183.928C98.7665 174.446 91.3881 165.009 85.8774 156.58C81.3004 149.59 77.692 141.693 77.496 133.378C77.2885 125.073 81.0238 116.327 88.3214 112.124C106.122 101.871 130.113 121.595 146.887 107.287C159.846 96.2408 159.408 76.1656 181.024 74.5229Z" stroke="#FF5722" stroke-width="0.572256" stroke-linecap="round" stroke-linejoin="round"/>
<path d="M179.744 83.7676C192.91 82.7706 205.937 93.0914 207.748 105.95C208.681 112.6 206.952 119.454 208.232 126.059C210.03 135.326 217.409 142.543 225.133 148.162C232.857 153.781 241.411 158.574 247.487 165.881C253.563 173.188 256.56 184.087 251.476 192.097C246.553 199.846 235.808 202.542 230.978 210.348C223.127 223.036 235.29 240.608 228.626 253.931C225.26 260.66 217.466 264.603 209.834 264.682C202.202 264.75 194.847 261.408 188.933 256.672C181.958 251.076 176.366 243.361 167.916 240.291C154.174 235.294 139.728 244.482 125.363 247.303C111.829 249.966 96.5991 246.227 87.5837 235.952C78.5682 225.676 77.5537 208.739 86.9381 198.792C91.9992 193.422 99.7119 189.955 102.121 183.033C105.119 174.434 98.4207 165.87 93.4172 158.222C89.2669 151.878 85.9927 144.718 85.8083 137.173C85.6238 129.639 89.0132 121.709 95.6307 117.891C111.771 108.59 133.537 126.478 148.767 113.506C160.526 103.48 160.122 85.2743 179.733 83.7902L179.744 83.7676Z" stroke="#FF5722" stroke-width="0.537921" stroke-linecap="round" stroke-linejoin="round"/>
<path d="M178.465 93.0122C190.293 92.1172 201.983 101.384 203.609 112.929C204.45 118.899 202.894 125.051 204.047 130.976C205.661 139.303 212.29 145.772 219.219 150.813C226.147 155.855 233.837 160.16 239.29 166.719C244.743 173.279 247.441 183.067 242.876 190.25C238.46 197.206 228.811 199.63 224.476 206.632C217.432 218.018 228.338 233.799 222.366 245.763C219.345 251.801 212.348 255.347 205.499 255.415C198.651 255.483 192.045 252.481 186.731 248.221C180.471 243.202 175.444 236.269 167.87 233.516C155.534 229.029 142.564 237.277 129.675 239.803C117.524 242.194 103.851 238.829 95.7576 229.619C87.6644 220.397 86.7537 205.182 95.1812 196.254C99.7235 191.428 106.652 188.324 108.82 182.104C111.506 174.378 105.499 166.697 101.003 159.831C97.2794 154.133 94.3396 147.709 94.1666 140.934C93.9937 134.171 97.0373 127.045 102.986 123.623C117.478 115.274 137.019 131.339 150.692 119.681C161.252 110.686 160.883 94.3377 178.488 93.0009L178.465 93.0122Z" stroke="#FF5722" stroke-width="0.503585" stroke-linecap="round" stroke-linejoin="round"/>
<path d="M177.185 102.268C187.665 101.475 198.029 109.688 199.459 119.907C200.197 125.198 198.825 130.658 199.851 135.904C201.28 143.279 207.16 149.011 213.293 153.486C219.426 157.961 226.24 161.768 231.07 167.58C235.901 173.392 238.287 182.07 234.241 188.437C230.333 194.6 221.778 196.741 217.939 202.949C211.691 213.044 221.363 227.012 216.072 237.616C213.397 242.975 207.195 246.113 201.119 246.17C195.043 246.227 189.198 243.564 184.494 239.803C178.949 235.351 174.499 229.21 167.778 226.774C156.849 222.798 145.354 230.105 133.929 232.348C123.162 234.467 111.057 231.487 103.886 223.319C96.7148 215.151 95.9078 201.669 103.367 193.761C107.39 189.49 113.524 186.737 115.449 181.22C117.835 174.377 112.509 167.569 108.52 161.485C105.223 156.443 102.617 150.745 102.468 144.74C102.318 138.747 105.015 132.437 110.284 129.401C123.127 122.003 140.443 136.232 152.548 125.911C161.898 117.936 161.587 103.446 177.185 102.268Z" stroke="#FF5722" stroke-width="0.46925" stroke-linecap="round" stroke-linejoin="round"/>
<path d="M175.905 111.512C185.036 110.821 194.063 117.97 195.319 126.886C195.965 131.497 194.766 136.255 195.654 140.821C196.899 147.244 202.018 152.252 207.367 156.138C212.716 160.024 218.654 163.354 222.862 168.418C227.069 173.483 229.156 181.039 225.628 186.59C222.216 191.96 214.768 193.83 211.414 199.245C205.972 208.036 214.399 220.215 209.788 229.46C207.459 234.127 202.052 236.858 196.76 236.914C191.469 236.96 186.373 234.648 182.269 231.363C177.438 227.488 173.553 222.141 167.708 220.011C158.185 216.544 148.167 222.911 138.206 224.871C128.822 226.718 118.273 224.124 112.024 217.009C105.776 209.894 105.073 198.146 111.575 191.247C115.08 187.519 120.429 185.129 122.101 180.325C124.176 174.366 119.53 168.418 116.071 163.128C113.189 158.732 110.929 153.759 110.791 148.536C110.664 143.313 113.004 137.818 117.593 135.167C128.787 128.721 143.878 141.127 154.427 132.131C162.578 125.187 162.301 112.555 175.894 111.524L175.905 111.512Z" stroke="#FF5722" stroke-width="0.434915" stroke-linecap="round" stroke-linejoin="round"/>
<path d="M174.614 120.757C182.396 120.168 190.097 126.263 191.157 133.865C191.711 137.796 190.685 141.852 191.446 145.749C192.506 151.232 196.876 155.492 201.43 158.811C205.995 162.131 211.045 164.963 214.641 169.28C218.227 173.596 220.002 180.042 217.005 184.778C214.1 189.355 207.747 190.952 204.888 195.563C200.254 203.063 207.436 213.44 203.493 221.325C201.51 225.302 196.899 227.636 192.391 227.681C187.883 227.726 183.537 225.744 180.044 222.945C175.917 219.637 172.619 215.083 167.627 213.27C159.511 210.314 150.968 215.74 142.483 217.417C134.482 218.992 125.49 216.782 120.164 210.71C114.837 204.638 114.238 194.623 119.783 188.743C122.781 185.571 127.334 183.52 128.753 179.43C130.516 174.344 126.562 169.28 123.611 164.771C121.155 161.021 119.23 156.784 119.115 152.331C118.999 147.879 121.005 143.189 124.913 140.934C134.459 135.439 147.314 146.01 156.318 138.34C163.27 132.415 163.027 121.652 174.614 120.78V120.757Z" stroke="#FF5722" stroke-width="0.389134" stroke-linecap="round" stroke-linejoin="round"/>
</g>
<defs>
<clipPath id="clip0_1_426">
<rect width="334.425" height="348.381" fill="white"/>
</clipPath>
</defs>
</svg>