<svg width="66" height="169" viewBox="0 0 66 169" fill="none" xmlns="http://www.w3.org/2000/svg">
<g clip-path="url(#clip0_1_28)">
<path d="M44.347 168.226L65.4748 168.226L54.9109 157.845L44.347 168.226Z" fill="#FF5722"/>
<path d="M44.347 133.048L65.4748 133.048L54.9109 122.667L44.347 133.048Z" fill="#FF5722"/>
<path d="M44.347 97.8543L65.4748 97.8543L54.9109 87.4733L44.347 97.8543Z" fill="#FF5722"/>
<path d="M44.347 62.676L65.4748 62.676L54.9109 52.295L44.347 62.676Z" fill="#FF5722"/>
<path d="M44.347 27.4976L65.4748 27.4976L54.9109 17.1016L44.347 27.4976Z" fill="#FF5722"/>
<path d="M0.00030899 151.124L21.1281 151.124L10.5642 140.743L0.00030899 151.124Z" fill="#FF5722"/>
<path d="M0.000106812 115.931L21.1279 115.931L10.564 105.55L0.000106812 115.931Z" fill="#FF5722"/>
<path d="M0.000106812 80.7526L21.1279 80.7526L10.564 70.3716L0.000106812 80.7526Z" fill="#FF5722"/>
<path d="M0.000106812 45.5743L21.1279 45.5743L10.564 35.1933L0.000106812 45.5743Z" fill="#FF5722"/>
<path d="M0.000106812 10.3809L21.1279 10.3809L10.564 -5.44056e-05L0.000106812 10.3809Z" fill="#FF5722"/>
</g>
<defs>
<clipPath id="clip0_1_28">
<rect width="65.4748" height="168.226" fill="white" transform="translate(65.4748 168.226) rotate(180)"/>
</clipPath>
</defs>
</svg>
