<svg width="174" height="32" viewBox="0 0 174 32" fill="none" xmlns="http://www.w3.org/2000/svg">
<path d="M99.8065 31.141L113.111 1.03261C113.321 0.575727 113.074 0.18281 112.563 0.18281H103.242C102.969 0.198309 102.705 0.285992 102.477 0.4369C102.249 0.587809 102.066 0.796533 101.945 1.04174L88.8049 31.141C88.613 31.607 88.8597 31.9908 89.3623 31.9908H98.509C99.0207 31.9908 99.6055 31.607 99.8065 31.141ZM147.514 23.036L168.165 0.191948H144.014L138.55 8.99146H148.026L127.037 31.9999H152.594L162.116 23.036H147.514ZM59.1351 0.18281H43.1443C42.6702 0.210282 42.2118 0.362492 41.8155 0.624037C41.4192 0.885583 41.099 1.24718 40.8873 1.67224L28.3048 30.5105C27.9393 31.3329 28.387 31.9999 29.2825 31.9999H37.2048C38.1003 31.9999 39.1237 31.3329 39.471 30.5197L43.062 22.3415H46.781C47.9415 22.2684 48.4349 22.6979 47.7953 24.0411L45.0358 30.5105C44.6885 31.3329 45.1271 31.9999 46.0226 31.9999H53.9449C54.4208 31.975 54.8815 31.8239 55.2797 31.5621C55.6779 31.3004 55.9994 30.9375 56.211 30.5105L59.8113 22.1862C60.9443 19.4814 59.3087 17.3889 56.9329 17.2793C59.0346 16.5208 60.9717 14.4283 61.8398 12.5277L63.7039 8.14166C65.9517 3.04288 64.3527 0.118847 59.1351 0.191948M54.4749 9.28386L52.5012 13.6242C52.0443 14.6659 51.3864 14.7481 50.7285 14.7207H46.2785L49.2573 7.95891H53.5246C54.5663 8.02287 54.8313 8.39752 54.4749 9.28386ZM90.2578 0.173672H73.3166C72.9773 0.191354 72.6488 0.2988 72.3647 0.485029C72.0805 0.671259 71.8509 0.929594 71.6993 1.23363L58.733 30.9308C58.4863 31.5156 58.7878 31.9817 59.4275 31.9817H77.5656C83.3132 31.8994 86.6118 30.6293 89.2343 24.5437L91.0984 20.4866C92.5604 17.0143 91.1258 15.5066 88.3845 15.068C90.6689 14.3644 92.3868 12.217 93.127 10.3255L94.6438 7.10911C96.5079 2.81444 94.9545 0.118847 90.2486 0.173672M81.9425 20.0936L80.7912 22.4055C80.2155 24.0137 79.2104 24.4523 77.7941 24.4706H72.4943L75.0345 18.4854H80.3343C81.8329 18.5951 82.4177 18.9606 81.9425 20.0936ZM84.9854 9.4392L84.1904 11.2667L84.0716 11.5043C83.9396 11.8855 83.6852 12.2124 83.348 12.4338C83.0108 12.6553 82.6098 12.759 82.2075 12.7287H77.6113L79.713 7.88581H84.4006C85.2412 7.94064 85.3783 8.48889 84.9854 9.4392ZM116.044 0.18281L112.106 8.99146H117.725C118.109 8.99146 118.292 9.26559 118.137 9.62195L108.314 31.3694C108.149 31.7167 108.341 31.9999 108.725 31.9999H118.731C119.114 31.9999 119.553 31.7167 119.708 31.3603L129.138 9.62195C129.229 9.43911 129.366 9.28353 129.536 9.17115C129.706 9.05876 129.903 8.9936 130.107 8.98232H135.873L141.3 0.18281H116.044ZM33.0289 11.02L34.2717 8.30614C36.7754 2.586 35.1215 0.127984 30.2054 0.191948H18.3722C13.5019 0.127984 9.4448 2.86926 7.19695 7.96805L3.5419 18.2935H0.0878906L6.69438 27.2118L17.6138 18.2935H14.836L18.0433 10.8464C18.5641 9.62195 19.4596 9.03715 20.4191 8.99146H22.2831C22.7217 9.00974 23.0233 9.1468 23.1969 9.33869L28.9901 4.46835L33.0289 11.02Z" fill="#191825" fill-opacity="0.5"/>
<path d="M6.44775 29.8344L1.58655 23.6757L1.33069 24.2239C-0.926295 29.3593 -0.551653 31.9178 4.31869 31.9909H15.9965C20.8303 31.9178 25.061 29.3593 27.3272 24.2239L30.7995 16.2651H33.9062L28.6064 7.33765L17.7784 16.2651H20.7481L18.5551 21.3365C18.0251 22.4147 17.221 22.9995 16.362 23.036H14.8087L6.44775 29.8344Z" fill="#191825" fill-opacity="0.5"/>
<path d="M172.012 0.000121574C172.441 0.000121574 172.807 0.155461 173.109 0.457002C173.41 0.758543 173.565 1.12405 173.565 1.55351C173.565 1.97384 173.41 2.33935 173.109 2.65003C172.807 2.96071 172.441 3.10691 172.012 3.10691C171.808 3.11005 171.605 3.07111 171.416 2.99251C171.228 2.91391 171.057 2.79733 170.915 2.65003C170.614 2.33935 170.459 1.97384 170.459 1.55351C170.459 1.13318 170.614 0.749405 170.915 0.457002C171.057 0.310133 171.228 0.193842 171.417 0.115274C171.605 0.0367063 171.808 -0.00248031 172.012 0.000121574ZM172.012 2.8145C172.18 2.81829 172.346 2.78783 172.502 2.72499C172.658 2.66214 172.799 2.56823 172.917 2.449C173.036 2.33132 173.13 2.19028 173.193 2.03467C173.256 1.87905 173.286 1.71216 173.282 1.54438C173.285 1.37812 173.254 1.21297 173.192 1.05902C173.129 0.905057 173.035 0.765513 172.917 0.648891C172.799 0.52922 172.658 0.435021 172.502 0.372144C172.347 0.309268 172.18 0.279057 172.012 0.283387C171.846 0.279772 171.68 0.310346 171.526 0.373218C171.372 0.436089 171.233 0.529918 171.117 0.648891C170.87 0.895607 170.751 1.19715 170.751 1.54438C170.751 1.89161 170.87 2.20228 171.117 2.449C171.363 2.69571 171.665 2.8145 172.012 2.8145ZM172.807 2.3759H172.441L171.985 1.71799H171.793V2.3759H171.464V0.703717H171.985C172.167 0.703717 172.314 0.749405 172.423 0.831644C172.533 0.92302 172.597 1.04181 172.597 1.19715C172.597 1.39818 172.487 1.55351 172.277 1.63575L172.807 2.3759ZM171.802 1.44386H171.975C172.186 1.44386 172.286 1.36162 172.286 1.20629C172.286 1.05095 172.195 0.977845 171.985 0.977845H171.802V1.44386Z" fill="#191825" fill-opacity="0.5"/>
</svg>
