<svg width="189" height="32" viewBox="0 0 189 32" fill="none" xmlns="http://www.w3.org/2000/svg">
<mask id="mask0_1_138" style="mask-type:luminance" maskUnits="userSpaceOnUse" x="0" y="0" width="189" height="32">
<path d="M188.604 0H0V32H188.604V0Z" fill="white"/>
</mask>
<g mask="url(#mask0_1_138)">
<mask id="mask1_1_138" style="mask-type:luminance" maskUnits="userSpaceOnUse" x="0" y="0" width="189" height="32">
<path d="M188.604 0H0V32H188.604V0Z" fill="white"/>
</mask>
<g mask="url(#mask1_1_138)">
<path d="M73.957 3.50312C73.957 1.92283 75.2389 0.633545 76.8266 0.633545C78.4069 0.633545 79.6962 1.91546 79.6962 3.50312C79.6409 5.08342 78.3074 6.31744 76.7235 6.26219C75.2205 6.20693 74.016 5.00238 73.957 3.50312Z" fill="#191825" fill-opacity="0.5"/>
</g>
<mask id="mask2_1_138" style="mask-type:luminance" maskUnits="userSpaceOnUse" x="0" y="0" width="189" height="32">
<path d="M188.604 0H0V32H188.604V0Z" fill="white"/>
</mask>
<g mask="url(#mask2_1_138)">
<path d="M119.181 22.6177C119.181 21.0263 120.463 19.7407 122.04 19.7407C123.627 19.7407 124.913 21.0263 124.913 22.6177C124.913 24.2053 123.627 25.4909 122.04 25.4909C120.463 25.4909 119.181 24.2016 119.181 22.6177Z" fill="#191825" fill-opacity="0.5"/>
</g>
<mask id="mask3_1_138" style="mask-type:luminance" maskUnits="userSpaceOnUse" x="0" y="0" width="189" height="32">
<path d="M188.604 0H0V32H188.604V0Z" fill="white"/>
</mask>
<g mask="url(#mask3_1_138)">
<path d="M26.9278 21.3763C24.4635 21.3763 22.7432 19.4166 22.7432 16.6133C22.7432 13.8137 24.4598 11.854 26.9278 11.854C29.407 11.854 31.1456 13.8137 31.1456 16.6133C31.142 19.4608 29.4475 21.3763 26.9278 21.3763ZM26.9278 7.66939C21.7081 7.66939 17.9176 11.4304 17.9176 16.6133C17.9176 21.7962 21.7118 25.5573 26.9278 25.5573C32.1734 25.5573 35.9749 21.7962 35.9749 16.617C35.9749 11.4304 32.166 7.66939 26.9278 7.66939ZM68.4096 17.0627C68.2291 16.7128 67.997 16.3849 67.7281 16.0976L67.5697 15.9318L67.7355 15.7735C67.9749 15.5193 68.2217 15.2209 68.4538 14.8746L73.0621 8.02302H67.4666L64.0039 13.3827C63.8087 13.6738 63.4146 13.8101 62.8215 13.8101H62.0295V3.67629C62.0295 1.65027 60.7697 1.37769 59.403 1.37769H57.0676L57.0713 25.292H62.0258V18.1236H62.49C63.0536 18.1236 63.4367 18.1899 63.6172 18.4957L66.3504 23.6565C67.1166 25.0563 67.8755 25.2957 69.3047 25.2957H73.1136L70.2809 20.6212L68.4096 17.0627ZM92.4787 7.63255C89.9554 7.63255 88.3456 8.75238 87.4468 9.70277L87.1484 10.0085L87.0416 9.59594C86.7764 8.57925 85.8849 8.0267 84.5404 8.0267H82.3191L82.3339 25.2957H87.2589V17.339C87.2589 16.5581 87.3584 15.8876 87.5647 15.2688C88.1135 13.4049 89.6423 12.2408 91.5504 12.2408C93.0865 12.2408 93.6906 13.0512 93.6906 15.1509V22.6729C93.6906 24.4595 94.5157 25.2994 96.3097 25.2994H98.6488L98.6378 14.3147C98.6378 9.93484 96.5049 7.63255 92.4787 7.63255ZM76.8894 8.02302H74.554L74.5687 21.3763V25.292H77.0589L77.1473 25.2957L78.3113 25.292H79.4643V25.2884H79.4753L79.4864 10.6495C79.479 8.88131 78.6355 8.02302 76.8894 8.02302ZM46.2634 21.3763C43.799 21.3763 42.0788 19.4166 42.0788 16.6133C42.0788 13.8137 43.799 11.854 46.2634 11.854C48.7388 11.854 50.4812 13.8137 50.4812 16.6133C50.4775 19.4608 48.783 21.3763 46.2634 21.3763ZM46.2634 7.66939C41.04 7.66939 37.2458 11.4304 37.2458 16.6133C37.2458 21.7962 41.04 25.5573 46.2634 25.5573C51.4979 25.5573 55.3105 21.7962 55.3105 16.617C55.3105 11.4304 51.5016 7.66939 46.2634 7.66939Z" fill="#191825" fill-opacity="0.5"/>
</g>
</g>
<mask id="mask4_1_138" style="mask-type:luminance" maskUnits="userSpaceOnUse" x="0" y="0" width="189" height="32">
<path d="M188.604 0H0V32H188.604V0Z" fill="white"/>
</mask>
<g mask="url(#mask4_1_138)">
<mask id="mask5_1_138" style="mask-type:luminance" maskUnits="userSpaceOnUse" x="0" y="0" width="189" height="32">
<path d="M188.563 0.629883H0V31.9595H188.563V0.629883Z" fill="white"/>
</mask>
<g mask="url(#mask5_1_138)">
<mask id="mask6_1_138" style="mask-type:luminance" maskUnits="userSpaceOnUse" x="0" y="0" width="189" height="32">
<path d="M188.604 0H0V32H188.604V0Z" fill="white"/>
</mask>
<g mask="url(#mask6_1_138)">
<path d="M151.793 21.3763C149.328 21.3763 147.608 19.4166 147.608 16.6134C147.608 13.8138 149.328 11.8541 151.793 11.8541C154.272 11.8541 156.01 13.8138 156.01 16.6134C156.01 19.4608 154.312 21.3763 151.793 21.3763ZM151.793 7.66943C146.569 7.66943 142.775 11.4305 142.775 16.6134C142.775 21.7963 146.562 25.5573 151.793 25.5573C157.031 25.5573 160.84 21.7963 160.84 16.6171C160.84 11.4305 157.027 7.66943 151.793 7.66943Z" fill="#191825" fill-opacity="0.5"/>
</g>
<mask id="mask7_1_138" style="mask-type:luminance" maskUnits="userSpaceOnUse" x="0" y="0" width="189" height="32">
<path d="M188.604 0H0V32H188.604V0Z" fill="white"/>
</mask>
<g mask="url(#mask7_1_138)">
<path d="M109.014 20.6101C106.322 20.6101 105.368 18.2636 105.368 16.0645C105.368 15.092 105.614 11.9351 108.764 11.9351C110.326 11.9351 112.407 12.3845 112.407 16.2229C112.403 19.8513 110.558 20.6101 109.014 20.6101ZM114.96 7.97883C114.024 7.97883 113.306 8.35088 112.945 9.03236L112.812 9.29758L112.584 9.09498C111.788 8.40613 110.363 7.59204 108.053 7.59204C103.448 7.59204 100.35 11.0473 100.35 16.1971C100.35 21.3395 103.559 24.9311 108.149 24.9311C109.714 24.9311 110.956 24.5627 111.936 23.8186L112.311 23.535V24.0138C112.311 26.3235 110.819 27.5943 108.116 27.5943C106.797 27.5943 105.603 27.2739 104.804 26.9829C103.761 26.6661 103.146 26.9313 102.726 27.9738L102.332 28.9389L101.78 30.3497L102.122 30.5302C103.854 31.4511 106.108 31.9963 108.141 31.9963C112.333 31.9963 117.229 29.8524 117.229 23.8112L117.244 7.96778H114.96" fill="#191825" fill-opacity="0.5"/>
</g>
</g>
</g>
<mask id="mask8_1_138" style="mask-type:luminance" maskUnits="userSpaceOnUse" x="0" y="0" width="189" height="32">
<path d="M188.604 0H0V32H188.604V0Z" fill="white"/>
</mask>
<g mask="url(#mask8_1_138)">
<mask id="mask9_1_138" style="mask-type:luminance" maskUnits="userSpaceOnUse" x="0" y="0" width="189" height="32">
<path d="M188.604 0H0V32H188.604V0Z" fill="white"/>
</mask>
<g mask="url(#mask9_1_138)">
<path d="M8.59399 21.1737L4.58248 21.17V16.3812C4.58248 15.3535 4.98032 14.8267 5.85334 14.7015H8.58662C10.5353 14.7015 11.7951 15.9318 11.8025 17.921C11.8025 19.9654 10.5721 21.1737 8.59399 21.1737ZM4.58248 8.25136V6.99154C4.58248 5.88644 5.04662 5.36337 6.07436 5.29706H8.12617C9.88328 5.29706 10.9368 6.35059 10.9368 8.11138C10.9368 9.45592 10.2148 11.0215 8.18879 11.0215H4.58248V8.25136ZM13.7069 13.0328L12.9849 12.6239L13.6148 12.0824C14.3552 11.4525 15.5819 10.0269 15.5819 7.56988C15.5819 3.80886 12.6681 1.38501 8.15564 1.38501H2.42385C1.08668 1.4329 0.0147347 2.52694 0 3.86412V25.1999H8.26246C13.2796 25.1999 16.5139 22.4703 16.5139 18.2415C16.5139 15.9723 15.464 14.0237 13.7069 13.0328Z" fill="#191825" fill-opacity="0.5"/>
</g>
<mask id="mask10_1_138" style="mask-type:luminance" maskUnits="userSpaceOnUse" x="0" y="0" width="189" height="32">
<path d="M188.604 0H0V32H188.604V0Z" fill="white"/>
</mask>
<g mask="url(#mask10_1_138)">
<path d="M182.831 7.68776C180.776 7.69145 178.827 8.63815 177.545 10.2516L177.188 10.701L176.908 10.1963C175.995 8.53133 174.429 7.69145 172.241 7.69145C169.953 7.69145 168.417 8.966 167.703 9.72852L167.238 10.2332L167.058 9.56644C166.8 8.60868 165.946 8.08192 164.656 8.08192H162.586L162.564 25.2846H167.264V17.6889C167.264 17.0222 167.345 16.3665 167.511 15.6776C167.96 13.8432 169.195 11.8687 171.268 12.064C172.543 12.1892 173.169 13.1764 173.169 15.0809V25.281H177.903V17.6852C177.903 16.8527 177.98 16.2265 178.168 15.6076C178.544 13.8542 179.837 12.0566 181.837 12.0566C183.285 12.0566 183.822 12.8744 183.822 15.0809V22.765C183.822 24.5 184.596 25.281 186.335 25.281H188.545L188.548 14.2999C188.563 9.90902 186.629 7.68776 182.831 7.68776ZM140.053 19.3097C140.038 19.3245 138.016 21.461 135.353 21.461C132.925 21.461 130.476 19.9728 130.476 16.6501C130.476 13.7806 132.376 11.773 135.099 11.773C135.983 11.773 136.985 12.0897 137.143 12.6202L137.165 12.7086C137.371 13.4638 138.06 13.9831 138.837 13.9795L141.412 13.9832V11.7287C141.412 8.75603 137.637 7.68408 135.091 7.68408C129.654 7.68408 125.713 11.4672 125.713 16.6796C125.713 21.8883 129.614 25.6714 134.992 25.6714C139.659 25.6714 142.193 22.6029 142.219 22.5771L142.352 22.4114L140.311 19.0261L140.053 19.3097Z" fill="#191825" fill-opacity="0.5"/>
</g>
</g>
</svg>
