<svg width="114" height="32" viewBox="0 0 114 32" fill="none" xmlns="http://www.w3.org/2000/svg">
<path d="M54.3415 25.0368H50.8266C50.8043 25.0368 50.8043 25.0368 50.7932 25.0257L47.7676 21.3327L44.7421 25.0257C44.731 25.0368 44.7198 25.0368 44.7087 25.0368H41.8945C41.8723 25.0368 41.8611 25.0257 41.85 25.0146C41.85 25.0034 41.85 24.9812 41.8611 24.9701L46.3216 19.4974L41.9167 14.0803C41.9056 14.0581 41.9056 14.0469 41.9056 14.0247C41.9167 14.0136 41.9279 14.0024 41.939 14.0024H45.454C45.4651 14.0024 45.4762 14.0136 45.4873 14.0247L48.1458 17.3172L50.8488 14.0247C50.8599 14.0136 50.871 14.0024 50.8822 14.0024H53.7409C53.752 14.0024 53.7742 14.0136 53.7854 14.0247C53.7965 14.0469 53.7854 14.0581 53.7742 14.0803L49.603 19.0969L54.386 24.9701C54.3971 24.9812 54.3971 25.0034 54.3971 25.0146C54.3749 25.0368 54.3638 25.0368 54.3415 25.0368Z" fill="#191825" fill-opacity="0.5"/>
<path d="M73.3514 15.9379C71.7941 15.9379 70.7374 16.8834 70.4259 18.5185H75.7206V18.4073C75.7206 17.1059 74.7529 15.9379 73.3514 15.9379ZM78.4458 20.2093C78.4347 20.2204 78.4236 20.2315 78.4125 20.2315H70.3703C70.5371 22.1002 71.7496 23.1681 73.7184 23.1681C74.9309 23.1681 76.2212 22.7565 78.0343 21.7888C78.0677 21.7665 78.101 21.7999 78.101 21.8333V24.3027C78.101 24.3249 78.0899 24.336 78.0788 24.336C76.388 25.0479 74.6862 25.5374 73.3514 25.5374C69.892 25.5374 67.3781 23.0124 67.3781 19.5419C67.3781 16.0714 69.892 13.5464 73.3514 13.5464C76.5104 13.5464 78.5348 15.6709 78.5348 18.5964C78.5348 19.0747 78.457 20.1759 78.4458 20.2093Z" fill="#191825" fill-opacity="0.5"/>
<path d="M94.7749 11.711C93.7849 11.711 92.984 10.9212 92.984 9.95349C92.984 8.95239 93.7849 8.14038 94.7749 8.14038C95.7648 8.14038 96.5657 8.95239 96.5657 9.95349C96.5657 10.9212 95.7648 11.711 94.7749 11.711ZM93.3288 25.0368C93.2955 25.0368 93.2843 25.0256 93.2843 24.9923V14.0358C93.2843 14.0135 93.2955 13.9913 93.3177 13.9913H96.2209C96.2431 13.9913 96.2543 14.0135 96.2543 14.0358V24.9923C96.2543 25.0256 96.232 25.0368 96.2098 25.0368H93.3288Z" fill="#191825" fill-opacity="0.5"/>
<path d="M59.6583 23.3906C59.1355 23.3906 58.6016 23.3127 57.9787 23.157L57.9898 16.127C58.7129 15.8934 59.3358 15.7933 59.9587 15.7933C61.972 15.7933 63.3179 17.2727 63.3179 19.4863C63.3179 21.8555 61.883 23.3906 59.6583 23.3906ZM60.4481 13.5464C59.625 13.5464 58.8018 13.691 57.9342 13.9913H55.0421C55.0199 13.9913 54.9977 14.0136 54.9977 14.0358V32C55.8653 31.8777 56.9331 31.5662 57.9787 30.8321V25.3705C58.6906 25.4706 59.2801 25.5374 59.8474 25.5374C63.8073 25.5374 66.3657 23.1681 66.3657 19.4974C66.3657 15.9935 63.9297 13.5464 60.4481 13.5464Z" fill="#191825" fill-opacity="0.5"/>
<path d="M88.0452 22.4784C87.1442 22.9567 86.3322 23.1792 85.5758 23.1792C83.785 23.1792 82.706 21.9111 82.706 19.7866C82.706 17.3394 84.0742 15.7488 86.1987 15.7488C86.7883 15.7488 87.3556 15.8934 88.0452 16.2049V22.4784ZM88.0452 8.19604V13.9246C87.1998 13.6799 86.4546 13.5686 85.6982 13.5686C82.2499 13.5686 79.6582 16.1604 79.6582 19.6086C79.6582 23.0346 81.9496 25.5262 85.1086 25.5262C86.1987 25.5262 87.2221 25.2481 88.4234 24.6364V25.6263C89.2132 25.4706 90.1253 25.1592 91.0263 24.514V7.01697C90.1475 7.13932 89.1019 7.43965 88.0452 8.19604Z" fill="#191825" fill-opacity="0.5"/>
<path d="M106.321 22.4562C105.442 22.9567 104.697 23.2014 104.03 23.2014C102.105 23.2014 100.96 21.9334 100.96 19.8088C100.96 17.395 102.317 15.771 104.33 15.771C104.864 15.771 105.52 15.9824 106.321 16.4051V22.4562ZM109.302 13.8578C109.302 13.7911 109.246 13.7355 109.18 13.7355H106.833C106.766 13.7355 106.699 13.7911 106.699 13.8578V14.2583H106.644C105.565 13.7799 104.63 13.5686 103.729 13.5686C100.481 13.5686 97.934 16.2605 97.934 19.7087C97.934 23.1903 100.214 25.5262 103.607 25.5262C104.508 25.5262 105.676 25.4595 106.766 24.2136V25.6263C107.533 25.4595 108.446 25.1369 109.302 24.514V13.8578Z" fill="#191825" fill-opacity="0.5"/>
<path d="M33.8634 22.3004H41.1492C41.0379 23.1124 40.7599 24.069 40.1369 25.0367H32.5619C31.6387 25.0367 30.8712 24.3137 30.7822 23.4127C30.7822 23.4016 30.7711 23.3905 30.7711 23.3682V8.99687C30.7711 8.98575 30.7822 8.97462 30.7822 8.9635C30.8712 8.05139 31.6387 7.32837 32.5619 7.32837H41.138C41.0268 8.14037 40.7487 9.11923 40.1147 10.087H33.8634V14.0024H40.0591C40.0813 14.0024 40.1036 14.0246 40.1036 14.0469V16.761C40.1036 16.7832 40.0813 16.8055 40.0591 16.8055H33.8634V22.3004Z" fill="#191825" fill-opacity="0.5"/>
<path d="M24.7424 25.2704C24.0194 25.2704 23.5744 24.7031 23.5744 24.0135C23.5744 23.2793 24.0861 22.7565 24.7424 22.7565C25.3875 22.7565 25.8992 23.2682 25.8992 24.0135C25.8992 24.7587 25.3875 25.2704 24.7424 25.2704ZM24.7424 22.623C24.0082 22.623 23.3742 23.1792 23.3742 24.0135C23.3742 24.8032 23.9415 25.4039 24.7424 25.4039C25.4654 25.4039 26.0994 24.8477 26.0994 24.0135C26.0994 23.1792 25.4765 22.623 24.7424 22.623Z" fill="#191825" fill-opacity="0.5"/>
<path d="M24.4195 23.9022V23.3905H24.7643C24.9423 23.3905 25.1425 23.4128 25.1425 23.6241C25.1425 23.88 24.9534 23.8911 24.7421 23.8911C24.731 23.9022 24.4195 23.9022 24.4195 23.9022ZM25.3872 23.6575C25.3872 23.3238 25.187 23.1792 24.7866 23.1792H24.1637V24.8255H24.4306V24.1247H24.6865L25.1092 24.8255H25.4206L24.9645 24.1024C25.2093 24.0802 25.3872 23.9578 25.3872 23.6575Z" fill="#191825" fill-opacity="0.5"/>
<path d="M111.704 15.8156C110.981 15.8156 110.537 15.2483 110.537 14.5586C110.537 13.8245 111.048 13.3017 111.704 13.3017C112.35 13.3017 112.861 13.8134 112.861 14.5586C112.861 15.3039 112.35 15.8156 111.704 15.8156ZM111.704 13.1793C110.97 13.1793 110.336 13.7355 110.336 14.5697C110.336 15.3595 110.904 15.9602 111.704 15.9602C112.427 15.9602 113.062 15.404 113.062 14.5697C113.062 13.7244 112.427 13.1793 111.704 13.1793Z" fill="#191825" fill-opacity="0.5"/>
<path d="M111.371 14.4474V13.9468H111.716C111.894 13.9468 112.094 13.9691 112.094 14.1804C112.094 14.4362 111.905 14.4474 111.693 14.4474H111.371ZM112.35 14.2138C112.35 13.8801 112.15 13.7355 111.749 13.7355H111.126V15.3817H111.393V14.681H111.649L112.072 15.3817H112.383L111.927 14.6587C112.161 14.6365 112.35 14.5141 112.35 14.2138Z" fill="#191825" fill-opacity="0.5"/>
<path d="M15.343 10.0759L14.8202 8.58534L10.3263 2.58985L11.1272 2.38963L18.8579 9.07476L23.4074 7.77333C23.9413 7.63985 24.5531 7.60648 25.0092 7.60648C23.5854 4.52531 20.9603 1.98919 17.512 0.765622C10.6934 -1.67039 3.18514 1.9002 0.760253 8.72994C0.00386563 10.8434 -0.162985 13.0236 0.148469 15.0925L11.0382 11.3106L15.343 10.0759Z" fill="#191825" fill-opacity="0.5"/>
<path d="M25.4986 8.78552C25.0982 9.04136 24.5087 9.38618 23.9303 9.57528L19.3697 10.8767L16.333 20.643L15.5433 20.8989L16.1884 13.4462L15.8325 11.9001L11.5611 13.1236L0.259766 15.7599C1.16076 20.098 4.2308 23.891 8.71351 25.4817C15.5432 27.9177 23.0404 24.3471 25.4764 17.5174C26.522 14.5919 26.4553 11.5219 25.4986 8.78552Z" fill="#191825" fill-opacity="0.5"/>
<path d="M15.8214 11.889L16.1774 13.4352L15.5322 20.8878L16.322 20.632L19.3587 10.8657L23.9192 9.56422C24.4977 9.37513 25.0872 9.04143 25.4876 8.77447C25.343 8.37403 25.1873 7.98471 25.0093 7.59539C24.5421 7.59539 23.9415 7.61764 23.4076 7.76224L18.8581 9.06367L11.1274 2.37854L10.3265 2.57876L14.8092 8.57425L15.332 10.0648L11.0273 11.2995L0.137512 15.0814C0.170882 15.3039 0.215376 15.5375 0.259869 15.7599L11.5501 13.1014L15.8214 11.889Z" fill="white"/>
</svg>
